<svg width="500" height="500" viewBox="0 0 500 500" fill="none" xmlns="http://www.w3.org/2000/svg">
<rect width="500" height="500" fill="#201F2A"/>
<mask id="mask0_121_539" style="mask-type:alpha" maskUnits="userSpaceOnUse" x="0" y="0" width="500" height="500">
<rect width="500" height="500" fill="#201F2A"/>
</mask>
<g mask="url(#mask0_121_539)">
<path d="M1059.26 -191.479C1055.73 -82.561 990.765 152.857 759.143 223.188C469.616 311.1 365.191 41.3531 108.169 107.266C-148.853 173.178 -248.415 473.367 -6.18635 365.539C255.927 248.859 300.04 660 -57.9586 569.569C-244.211 522.522 -327.478 485.472 -239.519 183.577C-151.037 -120.111 -383.611 3.87074 -420.955 218.679C-450.831 390.525 -379.082 443.553 -339.473 448.587" stroke="url(#paint0_linear_121_539)" stroke-opacity="0.78" stroke-width="40"/>
</g>
<path d="M152.87 369.345C125.4 369.345 102.843 362.868 85.2 349.915C67.5567 336.738 58.065 317.978 56.725 293.635H126.74C127.41 301.898 129.867 307.928 134.11 311.725C138.353 315.522 143.825 317.42 150.525 317.42C156.555 317.42 161.468 315.968 165.265 313.065C169.285 309.938 171.295 305.695 171.295 300.335C171.295 293.412 168.057 288.052 161.58 284.255C155.103 280.458 144.607 276.215 130.09 271.525C114.68 266.388 102.173 261.475 92.57 256.785C83.19 251.872 74.9267 244.837 67.78 235.68C60.8567 226.3 57.395 214.128 57.395 199.165C57.395 183.978 61.1917 171.025 68.785 160.305C76.3783 149.362 86.875 141.098 100.275 135.515C113.675 129.932 128.862 127.14 145.835 127.14C173.305 127.14 195.192 133.617 211.495 146.57C228.022 159.3 236.843 177.278 237.96 200.505H166.605C166.382 193.358 164.148 187.998 159.905 184.425C155.885 180.852 150.637 179.065 144.16 179.065C139.247 179.065 135.227 180.517 132.1 183.42C128.973 186.323 127.41 190.455 127.41 195.815C127.41 200.282 129.085 204.19 132.435 207.54C136.008 210.667 140.363 213.458 145.5 215.915C150.637 218.148 158.23 221.052 168.28 224.625C183.243 229.762 195.527 234.898 205.13 240.035C214.957 244.948 223.332 251.983 230.255 261.14C237.402 270.073 240.975 281.463 240.975 295.31C240.975 309.38 237.402 321.998 230.255 333.165C223.332 344.332 213.17 353.153 199.77 359.63C186.593 366.107 170.96 369.345 152.87 369.345ZM449.384 130.825V183.085H386.404V367H320.744V183.085H258.434V130.825H449.384Z" fill="white"/>
<defs>
<linearGradient id="paint0_linear_121_539" x1="1056.01" y1="-157.047" x2="-65.1709" y2="760.244" gradientUnits="userSpaceOnUse">
<stop stop-color="#FF00B8"/>
<stop offset="0.229167" stop-color="#06D6A0"/>
<stop offset="0.640625" stop-color="#405CF2"/>
<stop offset="1" stop-color="#FA8C2B"/>
</linearGradient>
</defs>
</svg>
